<?xml version="1.0" encoding="UTF-8" standalone="no"?>
<!-- Created with Inkscape (http://www.inkscape.org/) -->

<svg
   width="256"
   height="256"
   viewBox="0 0 67.733332 67.733333"
   version="1.1"
   id="svg1"
   inkscape:export-filename="gritStar.png"
   inkscape:export-xdpi="96"
   inkscape:export-ydpi="96"
   inkscape:version="1.4.2 (ebf0e940, 2025-05-08)"
   sodipodi:docname="gritStar.svg"
   xmlns:inkscape="http://www.inkscape.org/namespaces/inkscape"
   xmlns:sodipodi="http://sodipodi.sourceforge.net/DTD/sodipodi-0.dtd"
   xmlns:xlink="http://www.w3.org/1999/xlink"
   xmlns="http://www.w3.org/2000/svg"
   xmlns:svg="http://www.w3.org/2000/svg">
  <sodipodi:namedview
     id="namedview1"
     pagecolor="#929292"
     bordercolor="#000000"
     borderopacity="0.25"
     inkscape:showpageshadow="2"
     inkscape:pageopacity="0.0"
     inkscape:pagecheckerboard="0"
     inkscape:deskcolor="#d1d1d1"
     inkscape:document-units="mm"
     showgrid="true"
     inkscape:zoom="1.9647245"
     inkscape:cx="108.92112"
     inkscape:cy="110.19357"
     inkscape:window-width="1440"
     inkscape:window-height="872"
     inkscape:window-x="0"
     inkscape:window-y="28"
     inkscape:window-maximized="0"
     inkscape:current-layer="layer2"
     showguides="true">
    <inkscape:grid
       id="grid1"
       units="px"
       originx="128"
       originy="128"
       spacingx="2.1166666"
       spacingy="2.1166666"
       empcolor="#0099e5"
       empopacity="0.30196078"
       color="#0099e5"
       opacity="0.14901961"
       empspacing="5"
       enabled="true"
       visible="true" />
  </sodipodi:namedview>
  <defs
     id="defs1">
    <linearGradient
       id="linearGradient1"
       inkscape:collect="always">
      <stop
         style="stop-color:#00faff;stop-opacity:1;"
         offset="0"
         id="stop1" />
      <stop
         style="stop-color:#00ff1e;stop-opacity:1;"
         offset="1"
         id="stop2" />
    </linearGradient>
    <radialGradient
       inkscape:collect="always"
       xlink:href="#linearGradient1"
       id="radialGradient2"
       cx="15.890693"
       cy="12.389354"
       fx="15.890693"
       fy="12.389354"
       r="18.140289"
       gradientTransform="matrix(0.94709437,0.14659824,-0.1467499,0.94807421,2.6588437,-1.6862205)"
       gradientUnits="userSpaceOnUse" />
  </defs>
  <g
     inkscape:groupmode="layer"
     id="layer2"
     inkscape:label="Layer 1">
    <path
       sodipodi:type="star"
       style="fill:url(#radialGradient2);stroke:#000000;stroke-width:1.39917592;stroke-linecap:butt;stroke-dasharray:none;stroke-linejoin:bevel;marker-start:"
       id="path1"
       inkscape:flatsided="false"
       sodipodi:sides="10"
       sodipodi:cx="15.890693"
       sodipodi:cy="12.389354"
       sodipodi:r1="17.622849"
       sodipodi:r2="8.8114243"
       sodipodi:arg1="1.7397138"
       sodipodi:arg2="2.0538731"
       inkscape:rounded="0.07"
       inkscape:randomized="2.7755576e-17"
       d="m 12.928022,29.761382 c -0.66488,-0.11339 -0.532991,-9.255596 -1.130289,-9.568896 -0.597299,-0.3133 -8.0436637,4.992261 -8.5149135,4.50972 -0.4712499,-0.482542 5.0091047,-7.801219 4.7100328,-8.405767 -0.2990718,-0.604548 -9.4418376,-0.689123 -9.5394561,-1.356501 -0.097619,-0.667378 8.637892,-3.36704 8.7512824,-4.03192 C 7.3180689,10.243138 -0.02887219,4.8007329 0.28442758,4.2034342 0.59772737,3.6061355 9.2517258,6.5566668 9.734267,6.0854169 10.216808,5.6141671 7.4719736,-3.1072549 8.0765218,-3.4063267 8.68107,-3.7053985 13.948023,3.768324 14.615401,3.6707055 c 0.667378,-0.097619 3.573083,-8.7667705 4.237963,-8.6533801 0.664879,0.1133903 0.53299,9.2555962 1.130289,9.5688959 0.597298,0.3132998 8.043663,-4.99226067 8.514913,-4.50971944 0.47125,0.48254124 -5.009105,7.80121854 -4.710033,8.40576674 0.299072,0.6045481 9.441838,0.6891229 9.539456,1.3565007 0.09762,0.6673777 -8.637892,3.3670407 -8.751282,4.0319207 -0.11339,0.664879 7.233551,6.107285 6.920251,6.704583 -0.3133,0.597299 -8.967298,-2.353232 -9.44984,-1.881982 -0.482541,0.471249 2.262294,9.192671 1.657746,9.491743 -0.604549,0.299072 -5.871502,-7.174651 -6.538879,-7.077032 -0.667378,0.09762 -3.573084,8.76677 -4.237963,8.65338 z"
       inkscape:transform-center-x="1.1211657"
       inkscape:transform-center-y="1.2955428"
       transform="matrix(1.403025,-0.20722272,0.20722272,1.403025,9.0639792,19.594499)" />
  </g>
</svg>
